# This file uses centimeters as units for non-parametric coordinates.

mtllib ati.mtl
g default
v -2.791189 0.416636 0.500000
v -1.003963 -0.500000 0.500000
v 0.000000 -0.500000 0.500000
v 1.003963 -0.500000 0.500000
v 2.791189 0.416636 0.500000
v -2.791189 0.666636 0.500000
v -1.003963 -0.250000 0.500000
v 0.000000 -0.250000 0.500000
v 1.003963 -0.250000 0.500000
v 2.791189 0.666636 0.500000
v -2.791189 0.916636 0.500000
v -1.003963 0.000000 0.500000
v 0.000000 0.000000 0.500000
v 1.003963 0.000000 0.500000
v 2.791189 0.916636 0.500000
v -2.791189 1.166636 0.500000
v -1.003963 0.250000 0.500000
v 0.000000 0.250000 0.500000
v 1.003963 0.250000 0.500000
v 2.791189 1.166636 0.500000
v -2.791189 1.416636 0.500000
v -1.003963 0.500000 0.500000
v 0.000000 0.500000 0.500000
v 1.003963 0.500000 0.500000
v 2.791189 1.416636 0.500000
v -2.791189 1.416636 0.250000
v -1.003963 0.500000 0.250000
v 0.000000 0.500000 0.250000
v 1.003963 0.500000 0.250000
v 2.791189 1.416636 0.250000
v -2.791189 1.416636 0.000000
v -1.003963 0.500000 0.000000
v 0.000000 0.500000 0.000000
v 1.003963 0.500000 0.000000
v 2.791189 1.416636 0.000000
v -2.791189 1.416636 -0.250000
v -1.003963 0.500000 -0.250000
v 0.000000 0.500000 -0.250000
v 1.003963 0.500000 -0.250000
v 2.791189 1.416636 -0.250000
v -2.791189 1.416636 -0.500000
v -1.003963 0.500000 -0.500000
v 0.000000 0.500000 -0.500000
v 1.003963 0.500000 -0.500000
v 2.791189 1.416636 -0.500000
v -2.791189 1.166636 -0.500000
v -1.003963 0.250000 -0.500000
v 0.000000 0.250000 -0.500000
v 1.003963 0.250000 -0.500000
v 2.791189 1.166636 -0.500000
v -2.791189 0.916636 -0.500000
v -1.003963 0.000000 -0.500000
v 0.000000 0.000000 -0.500000
v 1.003963 0.000000 -0.500000
v 2.791189 0.916636 -0.500000
v -2.791189 0.666636 -0.500000
v -1.003963 -0.250000 -0.500000
v 0.000000 -0.250000 -0.500000
v 1.003963 -0.250000 -0.500000
v 2.791189 0.666636 -0.500000
v -2.791189 0.416636 -0.500000
v -1.003963 -0.500000 -0.500000
v 0.000000 -0.500000 -0.500000
v 1.003963 -0.500000 -0.500000
v 2.791189 0.416636 -0.500000
v -2.791189 0.416636 -0.250000
v -1.003963 -0.500000 -0.250000
v 0.000000 -0.500000 -0.250000
v 1.003963 -0.500000 -0.250000
v 2.791189 0.416636 -0.250000
v -2.791189 0.416636 0.000000
v -1.003963 -0.500000 0.000000
v 0.000000 -0.500000 0.000000
v 1.003963 -0.500000 0.000000
v 2.791189 0.416636 0.000000
v -2.791189 0.416636 0.250000
v -1.003963 -0.500000 0.250000
v 0.000000 -0.500000 0.250000
v 1.003963 -0.500000 0.250000
v 2.791189 0.416636 0.250000
v 2.791189 0.666636 -0.250000
v 2.791189 0.666636 0.000000
v 2.791189 0.666636 0.250000
v 2.791189 0.916636 -0.250000
v 2.791189 0.916636 0.000000
v 2.791189 0.916636 0.250000
v 2.791189 1.166636 -0.250000
v 2.791189 1.166636 0.000000
v 2.791189 1.166636 0.250000
v -2.791189 0.666636 -0.250000
v -2.791189 0.666636 0.000000
v -2.791189 0.666636 0.250000
v -2.791189 0.916636 -0.250000
v -2.791189 0.916636 0.000000
v -2.791189 0.916636 0.250000
v -2.791189 1.166636 -0.250000
v -2.791189 1.166636 0.000000
v -2.791189 1.166636 0.250000
v -1.947467 -0.210477 0.500000
v -1.947467 -0.210477 0.250000
v -1.947467 -0.210477 0.000000
v -1.947467 -0.210477 -0.250000
v -1.947467 -0.210477 -0.500000
v -1.947467 0.039523 -0.500000
v -1.947467 0.289523 -0.500000
v -1.947467 0.539523 -0.500000
v -1.947467 0.789523 -0.500000
v -1.947467 0.789523 -0.250000
v -1.947467 0.789523 0.000000
v -1.947467 0.789523 0.250000
v -1.947467 0.789523 0.500000
v -1.947467 0.539523 0.500000
v -1.947467 0.289523 0.500000
v -1.947467 0.039523 0.500000
v 1.947467 -0.210477 0.500000
v 1.947467 -0.210477 0.250000
v 1.947467 -0.210477 0.000000
v 1.947467 -0.210477 -0.250000
v 1.947467 -0.210477 -0.500000
v 1.947467 0.039523 -0.500000
v 1.947467 0.289523 -0.500000
v 1.947467 0.539523 -0.500000
v 1.947467 0.789523 -0.500000
v 1.947467 0.789523 -0.250000
v 1.947467 0.789523 0.000000
v 1.947467 0.789523 0.250000
v 1.947467 0.789523 0.500000
v 1.947467 0.539523 0.500000
v 1.947467 0.289523 0.500000
v 1.947467 0.039523 0.500000
vt 0.375000 0.000000
vt 0.437500 0.000000
vt 0.500000 0.000000
vt 0.562500 0.000000
vt 0.625000 0.000000
vt 0.375000 0.062500
vt 0.437500 0.062500
vt 0.500000 0.062500
vt 0.562500 0.062500
vt 0.625000 0.062500
vt 0.375000 0.125000
vt 0.437500 0.125000
vt 0.500000 0.125000
vt 0.562500 0.125000
vt 0.625000 0.125000
vt 0.375000 0.187500
vt 0.437500 0.187500
vt 0.500000 0.187500
vt 0.562500 0.187500
vt 0.625000 0.187500
vt 0.375000 0.250000
vt 0.437500 0.250000
vt 0.500000 0.250000
vt 0.562500 0.250000
vt 0.625000 0.250000
vt 0.375000 0.312500
vt 0.437500 0.312500
vt 0.500000 0.312500
vt 0.562500 0.312500
vt 0.625000 0.312500
vt 0.375000 0.375000
vt 0.437500 0.375000
vt 0.500000 0.375000
vt 0.562500 0.375000
vt 0.625000 0.375000
vt 0.375000 0.437500
vt 0.437500 0.437500
vt 0.500000 0.437500
vt 0.562500 0.437500
vt 0.625000 0.437500
vt 0.375000 0.500000
vt 0.437500 0.500000
vt 0.500000 0.500000
vt 0.562500 0.500000
vt 0.625000 0.500000
vt 0.375000 0.562500
vt 0.437500 0.562500
vt 0.500000 0.562500
vt 0.562500 0.562500
vt 0.625000 0.562500
vt 0.375000 0.625000
vt 0.437500 0.625000
vt 0.500000 0.625000
vt 0.562500 0.625000
vt 0.625000 0.625000
vt 0.375000 0.687500
vt 0.437500 0.687500
vt 0.500000 0.687500
vt 0.562500 0.687500
vt 0.625000 0.687500
vt 0.375000 0.750000
vt 0.437500 0.750000
vt 0.500000 0.750000
vt 0.562500 0.750000
vt 0.625000 0.750000
vt 0.375000 0.812500
vt 0.437500 0.812500
vt 0.500000 0.812500
vt 0.562500 0.812500
vt 0.625000 0.812500
vt 0.375000 0.875000
vt 0.437500 0.875000
vt 0.500000 0.875000
vt 0.562500 0.875000
vt 0.625000 0.875000
vt 0.375000 0.937500
vt 0.437500 0.937500
vt 0.500000 0.937500
vt 0.562500 0.937500
vt 0.625000 0.937500
vt 0.375000 1.000000
vt 0.437500 1.000000
vt 0.500000 1.000000
vt 0.562500 1.000000
vt 0.625000 1.000000
vt 0.875000 0.000000
vt 0.812500 0.000000
vt 0.750000 0.000000
vt 0.687500 0.000000
vt 0.875000 0.062500
vt 0.812500 0.062500
vt 0.750000 0.062500
vt 0.687500 0.062500
vt 0.875000 0.125000
vt 0.812500 0.125000
vt 0.750000 0.125000
vt 0.687500 0.125000
vt 0.875000 0.187500
vt 0.812500 0.187500
vt 0.750000 0.187500
vt 0.687500 0.187500
vt 0.875000 0.250000
vt 0.812500 0.250000
vt 0.750000 0.250000
vt 0.687500 0.250000
vt 0.125000 0.000000
vt 0.187500 0.000000
vt 0.250000 0.000000
vt 0.312500 0.000000
vt 0.125000 0.062500
vt 0.187500 0.062500
vt 0.250000 0.062500
vt 0.312500 0.062500
vt 0.125000 0.125000
vt 0.187500 0.125000
vt 0.250000 0.125000
vt 0.312500 0.125000
vt 0.125000 0.187500
vt 0.187500 0.187500
vt 0.250000 0.187500
vt 0.312500 0.187500
vt 0.125000 0.250000
vt 0.187500 0.250000
vt 0.250000 0.250000
vt 0.312500 0.250000
vt 0.405786 0.000000
vt 0.405786 1.000000
vt 0.405786 0.937500
vt 0.405786 0.875000
vt 0.405786 0.812500
vt 0.405786 0.750000
vt 0.405786 0.687500
vt 0.405786 0.625000
vt 0.405786 0.562500
vt 0.405786 0.500000
vt 0.405786 0.437500
vt 0.405786 0.375000
vt 0.405786 0.312500
vt 0.405786 0.250000
vt 0.405786 0.187500
vt 0.405786 0.125000
vt 0.405786 0.062500
vt 0.594214 0.000000
vt 0.594214 1.000000
vt 0.594214 0.937500
vt 0.594214 0.875000
vt 0.594214 0.812500
vt 0.594214 0.750000
vt 0.594214 0.687500
vt 0.594214 0.625000
vt 0.594214 0.562500
vt 0.594214 0.500000
vt 0.594214 0.437500
vt 0.594214 0.375000
vt 0.594214 0.312500
vt 0.594214 0.250000
vt 0.594214 0.187500
vt 0.594214 0.125000
vt 0.594214 0.062500
vn 0.000000 0.000000 1.000000
vn 0.000000 0.000000 1.000000
vn 0.000000 0.000000 1.000000
vn 0.000000 0.000000 1.000000
vn 0.000000 0.000000 1.000000
vn 0.000000 0.000000 1.000000
vn 0.000000 0.000000 1.000000
vn 0.000000 0.000000 1.000000
vn 0.000000 0.000000 1.000000
vn 0.000000 0.000000 1.000000
vn 0.000000 0.000000 1.000000
vn 0.000000 0.000000 1.000000
vn 0.000000 0.000000 1.000000
vn 0.000000 0.000000 1.000000
vn 0.000000 0.000000 1.000000
vn 0.000000 0.000000 1.000000
vn 0.000000 0.000000 1.000000
vn 0.000000 0.000000 1.000000
vn 0.000000 0.000000 1.000000
vn 0.000000 0.000000 1.000000
vn 0.000000 0.000000 1.000000
vn 0.000000 0.000000 1.000000
vn 0.000000 0.000000 1.000000
vn 0.000000 0.000000 1.000000
vn 0.000000 0.000000 1.000000
vn 0.000000 0.000000 1.000000
vn 0.000000 0.000000 1.000000
vn 0.000000 0.000000 1.000000
vn 0.000000 0.000000 1.000000
vn 0.000000 0.000000 1.000000
vn 0.456360 0.889795 0.000000
vn 0.456360 0.889795 0.000000
vn 0.147050 0.989129 0.000000
vn 0.147050 0.989129 0.000000
vn 0.000000 1.000000 0.000000
vn 0.000000 1.000000 0.000000
vn -0.147050 0.989129 0.000000
vn -0.147050 0.989129 0.000000
vn -0.456360 0.889795 0.000000
vn -0.456360 0.889795 0.000000
vn -0.596538 0.802585 0.000000
vn -0.596538 0.802585 0.000000
vn 0.456360 0.889795 0.000000
vn 0.147050 0.989129 0.000000
vn 0.000000 1.000000 0.000000
vn -0.147050 0.989129 0.000000
vn -0.456360 0.889795 0.000000
vn -0.596538 0.802585 0.000000
vn 0.456360 0.889795 0.000000
vn 0.147050 0.989129 0.000000
vn 0.000000 1.000000 0.000000
vn -0.147050 0.989129 0.000000
vn -0.456360 0.889795 0.000000
vn -0.596538 0.802585 0.000000
vn 0.456360 0.889795 0.000000
vn 0.147050 0.989129 0.000000
vn 0.000000 1.000000 0.000000
vn -0.147050 0.989129 0.000000
vn -0.456360 0.889795 0.000000
vn -0.596538 0.802585 0.000000
vn 0.000000 0.000000 -1.000000
vn 0.000000 0.000000 -1.000000
vn 0.000000 0.000000 -1.000000
vn 0.000000 0.000000 -1.000000
vn 0.000000 0.000000 -1.000000
vn 0.000000 0.000000 -1.000000
vn 0.000000 0.000000 -1.000000
vn 0.000000 0.000000 -1.000000
vn 0.000000 0.000000 -1.000000
vn 0.000000 0.000000 -1.000000
vn 0.000000 0.000000 -1.000000
vn 0.000000 0.000000 -1.000000
vn 0.000000 0.000000 -1.000000
vn 0.000000 0.000000 -1.000000
vn 0.000000 0.000000 -1.000000
vn 0.000000 0.000000 -1.000000
vn 0.000000 0.000000 -1.000000
vn 0.000000 0.000000 -1.000000
vn 0.000000 0.000000 -1.000000
vn 0.000000 0.000000 -1.000000
vn 0.000000 0.000000 -1.000000
vn 0.000000 0.000000 -1.000000
vn 0.000000 0.000000 -1.000000
vn 0.000000 0.000000 -1.000000
vn 0.000000 0.000000 -1.000000
vn 0.000000 0.000000 -1.000000
vn 0.000000 0.000000 -1.000000
vn 0.000000 0.000000 -1.000000
vn 0.000000 0.000000 -1.000000
vn 0.000000 0.000000 -1.000000
vn -0.456360 -0.889795 0.000000
vn -0.456360 -0.889795 0.000000
vn -0.147050 -0.989129 0.000000
vn -0.147050 -0.989129 0.000000
vn 0.000000 -1.000000 0.000000
vn 0.000000 -1.000000 0.000000
vn 0.147050 -0.989129 0.000000
vn 0.147050 -0.989129 0.000000
vn 0.456360 -0.889795 0.000000
vn 0.456360 -0.889795 0.000000
vn 0.596538 -0.802585 0.000000
vn 0.596538 -0.802585 0.000000
vn -0.456360 -0.889795 0.000000
vn -0.147050 -0.989129 0.000000
vn 0.000000 -1.000000 0.000000
vn 0.147050 -0.989129 0.000000
vn 0.456360 -0.889795 0.000000
vn 0.596538 -0.802585 0.000000
vn -0.456360 -0.889795 0.000000
vn -0.147050 -0.989129 0.000000
vn 0.000000 -1.000000 0.000000
vn 0.147050 -0.989129 0.000000
vn 0.456360 -0.889795 0.000000
vn 0.596537 -0.802585 0.000000
vn -0.456360 -0.889795 0.000000
vn -0.147050 -0.989129 0.000000
vn 0.000000 -1.000000 0.000000
vn 0.147050 -0.989129 0.000000
vn 0.456360 -0.889795 0.000000
vn 0.596537 -0.802585 0.000000
vn 1.000000 0.000000 0.000000
vn 1.000000 0.000000 0.000000
vn 1.000000 0.000000 0.000000
vn 1.000000 0.000000 0.000000
vn 1.000000 0.000000 0.000000
vn 1.000000 0.000000 0.000000
vn 1.000000 0.000000 0.000000
vn 1.000000 0.000000 0.000000
vn 1.000000 0.000000 0.000000
vn 1.000000 0.000000 0.000000
vn 1.000000 0.000000 0.000000
vn 1.000000 0.000000 0.000000
vn 1.000000 0.000000 0.000000
vn 1.000000 0.000000 0.000000
vn 1.000000 0.000000 0.000000
vn 1.000000 0.000000 0.000000
vn 1.000000 0.000000 0.000000
vn 1.000000 0.000000 0.000000
vn 1.000000 0.000000 0.000000
vn 1.000000 0.000000 0.000000
vn 1.000000 0.000000 0.000000
vn 1.000000 0.000000 0.000000
vn 1.000000 0.000000 0.000000
vn 1.000000 0.000000 0.000000
vn 1.000000 0.000000 0.000000
vn -1.000000 0.000000 0.000000
vn -1.000000 0.000000 0.000000
vn -1.000000 0.000000 0.000000
vn -1.000000 0.000000 0.000000
vn -1.000000 0.000000 0.000000
vn -1.000000 0.000000 0.000000
vn -1.000000 0.000000 0.000000
vn -1.000000 0.000000 0.000000
vn -1.000000 0.000000 0.000000
vn -1.000000 0.000000 0.000000
vn -1.000000 0.000000 0.000000
vn -1.000000 0.000000 0.000000
vn -1.000000 0.000000 0.000000
vn -1.000000 0.000000 0.000000
vn -1.000000 0.000000 0.000000
vn -1.000000 0.000000 0.000000
vn -1.000000 0.000000 0.000000
vn -1.000000 0.000000 0.000000
vn -1.000000 0.000000 0.000000
vn -1.000000 0.000000 0.000000
vn -1.000000 0.000000 0.000000
vn -1.000000 0.000000 0.000000
vn -1.000000 0.000000 0.000000
vn -1.000000 0.000000 0.000000
vn -1.000000 0.000000 0.000000
vn -0.596537 -0.802585 0.000000
vn -0.596537 -0.802585 0.000000
vn -0.596538 -0.802585 0.000000
vn -0.596538 -0.802585 0.000000
vn -0.596538 -0.802585 0.000000
vn 0.000000 0.000000 -1.000000
vn 0.000000 0.000000 -1.000000
vn 0.000000 0.000000 -1.000000
vn 0.000000 0.000000 -1.000000
vn 0.000000 0.000000 -1.000000
vn 0.596538 0.802585 0.000000
vn 0.596538 0.802585 0.000000
vn 0.596538 0.802585 0.000000
vn 0.596538 0.802585 0.000000
vn 0.596538 0.802585 0.000000
vn 0.000000 0.000000 1.000000
vn 0.000000 0.000000 1.000000
vn 0.000000 0.000000 1.000000
vn 0.000000 0.000000 1.000000
vn 0.000000 0.000000 1.000000
s 1
g pCube1
usemtl lambert2SG
f 114/142/1 99/126/2 7/7/3
f 7/7/3 99/126/2 2/2/4
f 2/2/4 3/3/5 7/7/3
f 7/7/3 3/3/5 8/8/6
f 3/3/5 4/4/7 8/8/6
f 8/8/6 4/4/7 9/9/8
f 115/143/9 5/5/10 130/159/11
f 130/159/11 5/5/10 10/10/12
f 113/141/13 114/142/1 12/12/14
f 12/12/14 114/142/1 7/7/3
f 7/7/3 8/8/6 12/12/14
f 12/12/14 8/8/6 13/13/15
f 8/8/6 9/9/8 13/13/15
f 13/13/15 9/9/8 14/14/16
f 130/159/11 10/10/12 129/158/17
f 129/158/17 10/10/12 15/15/18
f 112/140/19 113/141/13 17/17/20
f 17/17/20 113/141/13 12/12/14
f 12/12/14 13/13/15 17/17/20
f 17/17/20 13/13/15 18/18/21
f 13/13/15 14/14/16 18/18/21
f 18/18/21 14/14/16 19/19/22
f 129/158/17 15/15/18 128/157/23
f 128/157/23 15/15/18 20/20/24
f 111/139/25 112/140/19 22/22/26
f 22/22/26 112/140/19 17/17/20
f 17/17/20 18/18/21 22/22/26
f 22/22/26 18/18/21 23/23/27
f 18/18/21 19/19/22 23/23/27
f 23/23/27 19/19/22 24/24/28
f 128/157/23 20/20/24 127/156/29
f 127/156/29 20/20/24 25/25/30
s 6
f 110/138/31 111/139/32 27/27/33
f 27/27/33 111/139/32 22/22/34
f 22/22/34 23/23/35 27/27/33
f 27/27/33 23/23/35 28/28/36
f 23/23/35 24/24/37 28/28/36
f 28/28/36 24/24/37 29/29/38
f 126/155/39 127/156/40 30/30/41
f 30/30/41 127/156/40 25/25/42
f 109/137/43 110/138/31 32/32/44
f 32/32/44 110/138/31 27/27/33
f 27/27/33 28/28/36 32/32/44
f 32/32/44 28/28/36 33/33/45
f 28/28/36 29/29/38 33/33/45
f 33/33/45 29/29/38 34/34/46
f 125/154/47 126/155/39 35/35/48
f 35/35/48 126/155/39 30/30/41
f 108/136/49 109/137/43 37/37/50
f 37/37/50 109/137/43 32/32/44
f 32/32/44 33/33/45 37/37/50
f 37/37/50 33/33/45 38/38/51
f 33/33/45 34/34/46 38/38/51
f 38/38/51 34/34/46 39/39/52
f 124/153/53 125/154/47 40/40/54
f 40/40/54 125/154/47 35/35/48
f 107/135/55 108/136/49 42/42/56
f 42/42/56 108/136/49 37/37/50
f 37/37/50 38/38/51 42/42/56
f 42/42/56 38/38/51 43/43/57
f 38/38/51 39/39/52 43/43/57
f 43/43/57 39/39/52 44/44/58
f 123/152/59 124/153/53 45/45/60
f 45/45/60 124/153/53 40/40/54
s 14
f 107/135/61 42/42/62 106/134/63
f 106/134/63 42/42/62 47/47/64
f 42/42/62 43/43/65 47/47/64
f 47/47/64 43/43/65 48/48/66
f 43/43/65 44/44/67 48/48/66
f 48/48/66 44/44/67 49/49/68
f 122/151/69 123/152/70 50/50/71
f 50/50/71 123/152/70 45/45/72
f 106/134/63 47/47/64 105/133/73
f 105/133/73 47/47/64 52/52/74
f 47/47/64 48/48/66 52/52/74
f 52/52/74 48/48/66 53/53/75
f 48/48/66 49/49/68 53/53/75
f 53/53/75 49/49/68 54/54/76
f 121/150/77 122/151/69 55/55/78
f 55/55/78 122/151/69 50/50/71
f 105/133/73 52/52/74 104/132/79
f 104/132/79 52/52/74 57/57/80
f 52/52/74 53/53/75 57/57/80
f 57/57/80 53/53/75 58/58/81
f 53/53/75 54/54/76 58/58/81
f 58/58/81 54/54/76 59/59/82
f 120/149/83 121/150/77 60/60/84
f 60/60/84 121/150/77 55/55/78
f 104/132/79 57/57/80 103/131/85
f 103/131/85 57/57/80 62/62/86
f 57/57/80 58/58/81 62/62/86
f 62/62/86 58/58/81 63/63/87
f 58/58/81 59/59/82 63/63/87
f 63/63/87 59/59/82 64/64/88
f 119/148/89 120/149/83 65/65/90
f 65/65/90 120/149/83 60/60/84
s 19
f 102/130/91 103/131/92 67/67/93
f 67/67/93 103/131/92 62/62/94
f 62/62/94 63/63/95 67/67/93
f 67/67/93 63/63/95 68/68/96
f 63/63/95 64/64/97 68/68/96
f 68/68/96 64/64/97 69/69/98
f 118/147/99 119/148/100 70/70/101
f 70/70/101 119/148/100 65/65/102
f 101/129/103 102/130/91 72/72/104
f 72/72/104 102/130/91 67/67/93
f 67/67/93 68/68/96 72/72/104
f 72/72/104 68/68/96 73/73/105
f 68/68/96 69/69/98 73/73/105
f 73/73/105 69/69/98 74/74/106
f 117/146/107 118/147/99 75/75/108
f 75/75/108 118/147/99 70/70/101
f 100/128/109 101/129/103 77/77/110
f 77/77/110 101/129/103 72/72/104
f 72/72/104 73/73/105 77/77/110
f 77/77/110 73/73/105 78/78/111
f 73/73/105 74/74/106 78/78/111
f 78/78/111 74/74/106 79/79/112
f 116/145/113 117/146/107 80/80/114
f 80/80/114 117/146/107 75/75/108
f 99/127/115 100/128/109 2/82/116
f 2/82/116 100/128/109 77/77/110
f 77/77/110 78/78/111 2/82/116
f 2/82/116 78/78/111 3/83/117
f 78/78/111 79/79/112 3/83/117
f 3/83/117 79/79/112 4/84/118
f 115/144/119 116/145/113 5/85/120
f 5/85/120 116/145/113 80/80/114
s 27
f 70/87/121 65/86/122 81/91/123
f 81/91/123 65/86/122 60/90/124
f 75/88/125 70/87/121 82/92/126
f 82/92/126 70/87/121 81/91/123
f 80/89/127 75/88/125 83/93/128
f 83/93/128 75/88/125 82/92/126
f 5/5/129 80/89/127 10/10/130
f 10/10/130 80/89/127 83/93/128
f 81/91/123 60/90/124 84/95/131
f 84/95/131 60/90/124 55/94/132
f 82/92/126 81/91/123 85/96/133
f 85/96/133 81/91/123 84/95/131
f 83/93/128 82/92/126 86/97/134
f 86/97/134 82/92/126 85/96/133
f 10/10/130 83/93/128 15/15/135
f 15/15/135 83/93/128 86/97/134
f 84/95/131 55/94/132 87/99/136
f 87/99/136 55/94/132 50/98/137
f 85/96/133 84/95/131 88/100/138
f 88/100/138 84/95/131 87/99/136
f 86/97/134 85/96/133 89/101/139
f 89/101/139 85/96/133 88/100/138
f 15/15/135 86/97/134 20/20/140
f 20/20/140 86/97/134 89/101/139
f 87/99/136 50/98/137 40/103/141
f 40/103/141 50/98/137 45/102/142
f 88/100/138 87/99/136 35/104/143
f 35/104/143 87/99/136 40/103/141
f 89/101/139 88/100/138 30/105/144
f 30/105/144 88/100/138 35/104/143
f 20/20/140 89/101/139 25/25/145
f 25/25/145 89/101/139 30/105/144
s 28
f 61/106/146 66/107/147 56/110/148
f 56/110/148 66/107/147 90/111/149
f 66/107/147 71/108/150 90/111/149
f 90/111/149 71/108/150 91/112/151
f 71/108/150 76/109/152 91/112/151
f 91/112/151 76/109/152 92/113/153
f 76/109/152 1/1/154 92/113/153
f 92/113/153 1/1/154 6/6/155
f 56/110/148 90/111/149 51/114/156
f 51/114/156 90/111/149 93/115/157
f 90/111/149 91/112/151 93/115/157
f 93/115/157 91/112/151 94/116/158
f 91/112/151 92/113/153 94/116/158
f 94/116/158 92/113/153 95/117/159
f 92/113/153 6/6/155 95/117/159
f 95/117/159 6/6/155 11/11/160
f 51/114/156 93/115/157 46/118/161
f 46/118/161 93/115/157 96/119/162
f 93/115/157 94/116/158 96/119/162
f 96/119/162 94/116/158 97/120/163
f 94/116/158 95/117/159 97/120/163
f 97/120/163 95/117/159 98/121/164
f 95/117/159 11/11/160 98/121/164
f 98/121/164 11/11/160 16/16/165
f 46/118/161 96/119/162 41/122/166
f 41/122/166 96/119/162 36/123/167
f 96/119/162 97/120/163 36/123/167
f 36/123/167 97/120/163 31/124/168
f 97/120/163 98/121/164 31/124/168
f 31/124/168 98/121/164 26/125/169
f 98/121/164 16/16/165 26/125/169
f 26/125/169 16/16/165 21/21/170
s 19
f 76/76/171 100/128/109 1/81/172
f 1/81/172 100/128/109 99/127/115
f 71/71/173 101/129/103 76/76/171
f 76/76/171 101/129/103 100/128/109
f 66/66/174 102/130/91 71/71/173
f 71/71/173 102/130/91 101/129/103
f 61/61/175 103/131/92 66/66/174
f 66/66/174 103/131/92 102/130/91
s 14
f 56/56/176 104/132/79 61/61/177
f 61/61/177 104/132/79 103/131/85
f 51/51/178 105/133/73 56/56/176
f 56/56/176 105/133/73 104/132/79
f 46/46/179 106/134/63 51/51/178
f 51/51/178 106/134/63 105/133/73
f 41/41/180 107/135/61 46/46/179
f 46/46/179 107/135/61 106/134/63
s 6
f 36/36/181 108/136/49 41/41/182
f 41/41/182 108/136/49 107/135/55
f 31/31/183 109/137/43 36/36/181
f 36/36/181 109/137/43 108/136/49
f 26/26/184 110/138/31 31/31/183
f 31/31/183 110/138/31 109/137/43
f 21/21/185 111/139/32 26/26/184
f 26/26/184 111/139/32 110/138/31
s 1
f 112/140/19 111/139/25 16/16/186
f 16/16/186 111/139/25 21/21/187
f 113/141/13 112/140/19 11/11/188
f 11/11/188 112/140/19 16/16/186
f 114/142/1 113/141/13 6/6/189
f 6/6/189 113/141/13 11/11/188
f 99/126/2 114/142/1 1/1/190
f 1/1/190 114/142/1 6/6/189
s 19
f 79/79/112 116/145/113 4/84/118
f 4/84/118 116/145/113 115/144/119
f 74/74/106 117/146/107 79/79/112
f 79/79/112 117/146/107 116/145/113
f 69/69/98 118/147/99 74/74/106
f 74/74/106 118/147/99 117/146/107
f 64/64/97 119/148/100 69/69/98
f 69/69/98 119/148/100 118/147/99
s 14
f 120/149/83 119/148/89 59/59/82
f 59/59/82 119/148/89 64/64/88
f 121/150/77 120/149/83 54/54/76
f 54/54/76 120/149/83 59/59/82
f 122/151/69 121/150/77 49/49/68
f 49/49/68 121/150/77 54/54/76
f 123/152/70 122/151/69 44/44/67
f 44/44/67 122/151/69 49/49/68
s 6
f 39/39/52 124/153/53 44/44/58
f 44/44/58 124/153/53 123/152/59
f 34/34/46 125/154/47 39/39/52
f 39/39/52 125/154/47 124/153/53
f 29/29/38 126/155/39 34/34/46
f 34/34/46 126/155/39 125/154/47
f 24/24/37 127/156/40 29/29/38
f 29/29/38 127/156/40 126/155/39
s 1
f 19/19/22 128/157/23 24/24/28
f 24/24/28 128/157/23 127/156/29
f 14/14/16 129/158/17 19/19/22
f 19/19/22 129/158/17 128/157/23
f 9/9/8 130/159/11 14/14/16
f 14/14/16 130/159/11 129/158/17
f 4/4/7 115/143/9 9/9/8
f 9/9/8 115/143/9 130/159/11
