# This file uses centimeters as units for non-parametric coordinates.

mtllib reru_2.mtl
g default
v -2.182527 1.550712 0.883515
v 1.723148 1.664980 0.883515
v -1.912751 1.668959 0.883515
v 1.530592 1.679787 0.883515
v -1.910687 1.668959 0.743794
v 1.530592 1.679787 0.743794
v -2.034444 1.625952 0.744873
v 1.647186 1.673263 0.744873
v -2.034444 1.625952 -0.744873
v 1.647186 1.673263 -0.744873
v -1.910687 1.668959 -0.743794
v 1.530592 1.679787 -0.743794
v -1.912751 1.668959 -0.883515
v 1.530592 1.679787 -0.883515
v -2.182527 1.550712 -0.883515
v 1.723148 1.664980 -0.883515
v -2.180464 1.550712 -0.743794
v 1.723148 1.664980 -0.743794
v -2.182527 1.550712 -0.656037
v 1.723148 1.664980 -0.656037
v -2.182527 1.550712 0.656037
v 1.723148 1.664980 0.656037
v -2.180464 1.550712 0.743794
v 1.723148 1.664980 0.743794
v -1.934679 0.857586 0.883515
v -1.934679 0.857586 0.743794
v -1.934679 0.857586 0.656037
v -1.934679 0.857586 -0.656037
v -1.934679 0.857586 -0.743794
v -1.934679 0.857586 -0.883515
v -1.728712 0.966928 -0.883515
v -1.728712 0.966928 -0.743794
v -1.798670 0.882137 -0.744873
v -1.798670 0.882137 0.744873
v -1.728712 0.966928 0.743794
v -1.728712 0.966928 0.883515
v -1.593856 0.250461 0.883515
v -1.416324 0.402009 0.883515
v -1.416324 0.402009 0.743794
v -1.487511 0.269740 0.744873
v -1.487511 0.269740 -0.744873
v -1.416324 0.402009 -0.743794
v -1.416324 0.402009 -0.883515
v -1.593856 0.250461 -0.883515
v -1.593856 0.250461 -0.743794
v -1.593856 0.250461 -0.656037
v -1.593856 0.250461 0.656037
v -1.593856 0.250461 0.743794
v -0.948279 -0.236831 0.883515
v -0.917357 0.000043 0.883515
v -0.917357 0.000043 0.743794
v -0.948279 -0.127239 0.744873
v -0.948279 -0.127239 -0.744873
v -0.917357 0.000043 -0.743794
v -0.917357 0.000043 -0.883515
v -0.948279 -0.236831 -0.883515
v -0.948279 -0.236831 -0.743794
v -0.948279 -0.236831 -0.656037
v -0.948279 -0.236831 0.656037
v -0.948279 -0.236831 0.743794
v -0.196932 -0.428117 0.883515
v -0.196932 -0.203550 0.883515
v -0.196932 -0.203550 0.743794
v -0.196932 -0.318525 0.744873
v -0.196932 -0.318525 -0.744873
v -0.196932 -0.203550 -0.743794
v -0.196932 -0.203550 -0.883515
v -0.196932 -0.428117 -0.883515
v -0.196932 -0.428117 -0.743794
v -0.196932 -0.428117 -0.656037
v -0.196932 -0.428117 0.656037
v -0.196932 -0.428117 0.743794
v 0.617751 -0.270749 0.883515
v 0.577267 -0.089090 0.883515
v 0.577267 -0.089090 0.743794
v 0.612535 -0.210266 0.744873
v 0.612535 -0.210266 -0.744873
v 0.577267 -0.089090 -0.743794
v 0.577267 -0.089090 -0.883515
v 0.617751 -0.270749 -0.883515
v 0.617751 -0.270749 -0.743794
v 0.617751 -0.270749 -0.656037
v 0.617751 -0.270749 0.656037
v 0.617751 -0.270749 0.743794
v 1.286048 0.247745 0.883515
v 1.160338 0.433409 0.883515
v 1.160338 0.433409 0.743794
v 1.225452 0.329192 0.744873
v 1.225452 0.329192 -0.744873
v 1.160338 0.433409 -0.743794
v 1.160338 0.433409 -0.883515
v 1.286048 0.247745 -0.883515
v 1.286048 0.247745 -0.743794
v 1.286048 0.247745 -0.656037
v 1.286048 0.247745 0.656037
v 1.286048 0.247745 0.743794
v 1.609564 0.810581 0.883515
v 1.449846 0.880213 0.883515
v 1.449846 0.880213 0.743794
v 1.548926 0.849069 0.744873
v 1.548926 0.849069 -0.744873
v 1.449846 0.880213 -0.743794
v 1.449846 0.880213 -0.883515
v 1.609564 0.810581 -0.883515
v 1.609564 0.810581 -0.743794
v 1.609564 0.810581 -0.656037
v 1.609564 0.810581 0.656037
v 1.609564 0.810581 0.743794
vt 0.375000 0.000000
vt 0.625000 0.000000
vt 0.375000 0.250000
vt 0.625000 0.250000
vt 0.375000 0.300000
vt 0.625000 0.300000
vt 0.375000 0.350000
vt 0.625000 0.350000
vt 0.375000 0.400000
vt 0.625000 0.400000
vt 0.375000 0.450000
vt 0.625000 0.450000
vt 0.375000 0.500000
vt 0.625000 0.500000
vt 0.375000 0.750000
vt 0.625000 0.750000
vt 0.375000 0.800000
vt 0.625000 0.800000
vt 0.375000 0.850000
vt 0.625000 0.850000
vt 0.375000 0.900000
vt 0.625000 0.900000
vt 0.375000 0.950000
vt 0.625000 0.950000
vt 0.375000 1.000000
vt 0.625000 1.000000
vt 0.875000 0.000000
vt 0.825000 0.000000
vt 0.775000 0.000000
vt 0.725000 0.000000
vt 0.675000 0.000000
vt 0.875000 0.250000
vt 0.825000 0.250000
vt 0.775000 0.250000
vt 0.725000 0.250000
vt 0.675000 0.250000
vt 0.125000 0.000000
vt 0.175000 0.000000
vt 0.225000 0.000000
vt 0.275000 0.000000
vt 0.325000 0.000000
vt 0.125000 0.250000
vt 0.175000 0.250000
vt 0.225000 0.250000
vt 0.275000 0.250000
vt 0.325000 0.250000
vt 0.402856 0.000000
vt 0.402856 1.000000
vt 0.402856 0.950000
vt 0.402856 0.900000
vt 0.402856 0.850000
vt 0.402856 0.800000
vt 0.402856 0.750000
vt 0.402856 0.500000
vt 0.402856 0.450000
vt 0.402856 0.400000
vt 0.402856 0.350000
vt 0.402856 0.300000
vt 0.402856 0.250000
vt 0.427929 0.000000
vt 0.427929 1.000000
vt 0.427929 0.250000
vt 0.427929 0.300000
vt 0.427929 0.350000
vt 0.427929 0.400000
vt 0.427929 0.450000
vt 0.427929 0.500000
vt 0.427929 0.750000
vt 0.427929 0.800000
vt 0.427929 0.850000
vt 0.427929 0.900000
vt 0.427929 0.950000
vt 0.456321 0.000000
vt 0.456321 1.000000
vt 0.456321 0.250000
vt 0.456321 0.300000
vt 0.456321 0.350000
vt 0.456321 0.400000
vt 0.456321 0.450000
vt 0.456321 0.500000
vt 0.456321 0.750000
vt 0.456321 0.800000
vt 0.456321 0.850000
vt 0.456321 0.900000
vt 0.456321 0.950000
vt 0.484172 0.000000
vt 0.484172 1.000000
vt 0.484172 0.250000
vt 0.484172 0.300000
vt 0.484172 0.350000
vt 0.484172 0.400000
vt 0.484172 0.450000
vt 0.484172 0.500000
vt 0.484172 0.750000
vt 0.484172 0.800000
vt 0.484172 0.850000
vt 0.484172 0.900000
vt 0.484172 0.950000
vt 0.541772 0.000000
vt 0.541772 1.000000
vt 0.541772 0.250000
vt 0.541772 0.300000
vt 0.541772 0.350000
vt 0.541772 0.400000
vt 0.541772 0.450000
vt 0.541772 0.500000
vt 0.541772 0.750000
vt 0.541772 0.800000
vt 0.541772 0.850000
vt 0.541772 0.900000
vt 0.541772 0.950000
vt 0.569469 0.000000
vt 0.569469 1.000000
vt 0.569469 0.250000
vt 0.569469 0.300000
vt 0.569469 0.350000
vt 0.569469 0.400000
vt 0.569469 0.450000
vt 0.569469 0.500000
vt 0.569469 0.750000
vt 0.569469 0.800000
vt 0.569469 0.850000
vt 0.569469 0.900000
vt 0.569469 0.950000
vt 0.596756 0.000000
vt 0.596756 1.000000
vt 0.596756 0.250000
vt 0.596756 0.300000
vt 0.596756 0.350000
vt 0.596756 0.400000
vt 0.596756 0.450000
vt 0.596756 0.500000
vt 0.596756 0.750000
vt 0.596756 0.800000
vt 0.596756 0.850000
vt 0.596756 0.900000
vt 0.596756 0.950000
vn 0.000000 0.000000 1.000000
vn 0.000000 0.000000 1.000000
vn 0.000000 0.000000 1.000000
vn 0.000000 0.000000 1.000000
vn 0.736609 0.287840 -0.612009
vn 0.931574 0.363551 0.000259
vn 0.538701 0.453592 -0.709969
vn 0.766028 0.642808 0.000000
vn 0.925750 0.373262 -0.060511
vn 0.761662 0.641545 -0.091051
vn 0.925750 0.373262 0.060511
vn 0.761662 0.641545 0.091051
vn 0.736455 0.288949 0.611672
vn 0.538701 0.453591 0.709969
vn 0.931077 0.364822 0.000000
vn 0.766028 0.642808 -0.000000
vn 0.000000 0.000000 -1.000000
vn 0.000000 0.000000 -1.000000
vn 0.000000 0.000000 -1.000000
vn 0.000000 0.000000 -1.000000
vn -0.911324 -0.411690 -0.000097
vn -0.911510 -0.411278 0.000244
vn -0.742813 -0.669499 -0.000000
vn -0.742814 -0.669498 0.000000
vn -0.910986 -0.412437 0.000000
vn -0.742813 -0.669499 0.000000
vn -0.911019 -0.412363 0.000015
vn -0.742813 -0.669499 0.000000
vn -0.911207 -0.411948 -0.000150
vn -0.742813 -0.669499 0.000000
vn -0.910986 -0.412437 0.000002
vn -0.742813 -0.669499 0.000000
vn 0.083063 0.996543 -0.001375
vn 0.076673 0.997056 0.000000
vn 0.076673 0.997055 -0.001292
vn 0.076673 0.997056 0.000000
vn 0.108655 0.993878 -0.019986
vn 0.108396 0.994108 0.000000
vn 0.108396 0.994108 0.000000
vn 0.108681 0.993828 0.022223
vn 0.076673 0.997055 0.001292
vn 0.083064 0.996543 0.001375
vn 0.076673 0.997056 0.000000
vn 0.076673 0.997056 0.000000
vn -0.401440 0.915866 0.005930
vn -0.416335 0.909211 -0.000046
vn -0.401439 0.915867 0.005931
vn -0.401445 0.915881 0.002227
vn -0.452990 0.890943 -0.031939
vn -0.453199 0.891409 -0.000465
vn -0.453175 0.891421 0.000417
vn -0.453009 0.891042 0.028780
vn -0.401445 0.915881 -0.002228
vn -0.416335 0.909211 0.000046
vn -0.401440 0.915866 -0.005929
vn -0.401439 0.915867 -0.005931
vn -0.942164 -0.335153 -0.000183
vn -0.942382 -0.334268 -0.013440
vn -0.941610 -0.336701 0.001387
vn -0.941665 -0.336549 -0.001358
vn -0.941973 -0.335689 -0.000295
vn -0.941520 -0.336669 0.013905
vn 0.000000 0.000000 -1.000000
vn 0.000000 0.000000 -1.000000
vn 0.937891 0.243113 0.247500
vn 0.967892 0.250986 -0.013811
vn 0.944173 0.299347 0.137584
vn 0.944173 0.299347 -0.137584
vn 0.937171 0.245594 -0.247779
vn 0.967215 0.253557 0.014286
vn 0.000000 0.000000 1.000000
vn 0.000000 0.000000 1.000000
vn 0.000000 0.000000 1.000000
vn 0.000000 0.000000 1.000000
vn 0.317339 0.640577 -0.699255
vn 0.444781 0.895639 0.000000
vn 0.413514 0.906988 -0.079868
vn 0.413514 0.906988 0.079868
vn 0.317338 0.640577 0.699255
vn 0.444781 0.895640 -0.000000
vn 0.000000 0.000000 -1.000000
vn 0.000000 0.000000 -1.000000
vn -0.436942 -0.899490 0.000000
vn -0.436942 -0.899490 0.000000
vn -0.436942 -0.899490 0.000000
vn -0.436942 -0.899490 0.000000
vn -0.436942 -0.899490 0.000000
vn -0.436942 -0.899490 0.000000
vn 0.000000 0.000000 1.000000
vn 0.000000 0.000000 1.000000
vn 0.034454 0.578544 -0.814923
vn 0.059530 0.998226 0.000000
vn 0.053102 0.997998 -0.034354
vn 0.053102 0.997998 0.034354
vn 0.034454 0.578544 0.814923
vn 0.059530 0.998227 0.000000
vn 0.000000 0.000000 -1.000000
vn 0.000000 0.000000 -1.000000
vn -0.021653 -0.999766 0.000000
vn -0.021653 -0.999766 0.000000
vn -0.021653 -0.999766 0.000000
vn -0.021653 -0.999766 0.000000
vn -0.021653 -0.999766 0.000000
vn -0.021653 -0.999766 0.000000
vn 0.000000 0.000000 1.000000
vn 0.000000 0.000000 1.000000
vn -0.285904 0.611732 -0.737593
vn -0.424837 0.905270 0.000000
vn -0.413685 0.908131 -0.064510
vn -0.413685 0.908131 0.064510
vn -0.285903 0.611732 0.737593
vn -0.424837 0.905270 0.000000
vn 0.000000 0.000000 -1.000000
vn 0.000000 0.000000 -1.000000
vn 0.414708 -0.909954 0.000000
vn 0.414708 -0.909954 0.000000
vn 0.414708 -0.909954 0.000000
vn 0.414708 -0.909955 -0.000000
vn 0.414708 -0.909955 0.000000
vn 0.414708 -0.909955 0.000000
vn -0.000000 0.000000 1.000000
vn -0.000001 0.000000 1.000000
vn -0.583509 0.526461 -0.618349
vn -0.743215 0.669052 0.000000
vn -0.746525 0.659780 -0.085964
vn -0.746525 0.659780 0.085964
vn -0.583509 0.526461 0.618349
vn -0.743216 0.669052 0.000000
vn -0.000000 0.000000 -1.000000
vn -0.000001 0.000000 -1.000000
vn 0.736953 -0.675944 0.000000
vn 0.736953 -0.675945 0.000000
vn 0.736953 -0.675944 0.000000
vn 0.736952 -0.675945 -0.000000
vn 0.736953 -0.675944 -0.000001
vn 0.736953 -0.675944 0.000000
vn -0.000000 -0.000000 1.000000
vn -0.000000 -0.000000 1.000000
vn -0.710170 0.211832 -0.671406
vn -0.958597 0.284765 0.000000
vn -0.952761 0.298849 -0.054179
vn -0.952761 0.298849 0.054179
vn -0.710170 0.211832 0.671406
vn -0.958597 0.284765 0.000000
vn 0.000000 -0.000000 -1.000000
vn 0.000000 -0.000000 -1.000000
vn 0.955584 -0.294719 0.000000
vn 0.955584 -0.294719 0.000000
vn 0.955584 -0.294719 0.000000
vn 0.955584 -0.294719 0.000000
vn 0.955584 -0.294719 -0.000000
vn 0.955584 -0.294719 0.000000
vn -0.000000 -0.000000 1.000000
vn 0.000000 -0.000000 1.000000
vn -0.830404 0.083859 -0.550815
vn -0.994940 0.100475 0.000000
vn -0.988797 0.117900 -0.091540
vn -0.988797 0.117899 0.091540
vn -0.830404 0.083859 0.550815
vn -0.994940 0.100475 0.000000
vn 0.000000 -0.000000 -1.000000
vn 0.000000 -0.000000 -1.000000
vn 0.991279 -0.131781 0.000000
vn 0.991279 -0.131781 0.000000
vn 0.991279 -0.131781 0.000000
vn 0.991279 -0.131781 0.000000
vn 0.991279 -0.131780 0.000000
vn 0.991279 -0.131780 0.000000
s 1
g pCube1
usemtl lambert2SG
f 36/59/1 25/47/2 38/62/3
f 38/62/3 25/47/2 37/60/4
s 2
f 35/58/5 36/59/6 39/63/7
f 39/63/7 36/59/6 38/62/8
f 35/58/5 39/63/7 34/57/9
f 34/57/9 39/63/7 40/64/10
f 33/56/11 34/57/9 41/65/12
f 41/65/12 34/57/9 40/64/10
f 32/55/13 33/56/11 42/66/14
f 42/66/14 33/56/11 41/65/12
f 31/54/15 32/55/13 43/67/16
f 43/67/16 32/55/13 42/66/14
s 6
f 31/54/17 43/67/18 30/53/19
f 30/53/19 43/67/18 44/68/20
s 7
f 29/52/21 30/53/22 45/69/23
f 45/69/23 30/53/22 44/68/24
f 28/51/25 29/52/21 46/70/26
f 46/70/26 29/52/21 45/69/23
f 27/50/27 28/51/25 47/71/28
f 47/71/28 28/51/25 46/70/26
f 26/49/29 27/50/27 48/72/30
f 48/72/30 27/50/27 47/71/28
f 25/48/31 26/49/29 37/61/32
f 37/61/32 26/49/29 48/72/30
s 12
f 18/28/33 16/27/34 12/33/35
f 12/33/35 16/27/34 14/32/36
f 12/33/35 10/34/37 18/28/33
f 20/29/38 18/28/33 10/34/37
f 22/30/39 20/29/38 8/35/40
f 8/35/40 20/29/38 10/34/37
f 6/36/41 24/31/42 8/35/40
f 24/31/42 22/30/39 8/35/40
f 2/2/43 24/31/42 4/4/44
f 4/4/44 24/31/42 6/36/41
s 14
f 15/37/45 17/38/46 13/42/47
f 13/42/47 17/38/46 11/43/48
f 11/43/48 17/38/46 9/44/49
f 17/38/46 19/39/50 9/44/49
f 19/39/50 21/40/51 9/44/49
f 9/44/49 21/40/51 7/45/52
f 5/46/53 7/45/52 23/41/54
f 21/40/51 23/41/54 7/45/52
f 1/1/55 3/3/56 23/41/54
f 23/41/54 3/3/56 5/46/53
s 7
f 23/23/57 26/49/29 1/25/58
f 1/25/58 26/49/29 25/48/31
f 21/21/59 27/50/27 23/23/57
f 23/23/57 27/50/27 26/49/29
f 19/19/60 28/51/25 21/21/59
f 21/21/59 28/51/25 27/50/27
f 17/17/61 29/52/21 19/19/60
f 19/19/60 29/52/21 28/51/25
f 15/15/62 30/53/22 17/17/61
f 17/17/61 30/53/22 29/52/21
s 6
f 13/13/63 31/54/17 15/15/64
f 15/15/64 31/54/17 30/53/19
s 2
f 11/11/65 32/55/13 13/13/66
f 13/13/66 32/55/13 31/54/15
f 33/56/11 32/55/13 9/9/67
f 9/9/67 32/55/13 11/11/65
f 7/7/68 34/57/9 9/9/67
f 9/9/67 34/57/9 33/56/11
f 5/5/69 35/58/5 7/7/68
f 7/7/68 35/58/5 34/57/9
f 3/3/70 36/59/6 5/5/69
f 5/5/69 36/59/6 35/58/5
s 1
f 25/47/2 36/59/1 1/1/71
f 1/1/71 36/59/1 3/3/72
f 38/62/3 37/60/4 50/75/73
f 50/75/73 37/60/4 49/73/74
s 2
f 39/63/7 38/62/8 51/76/75
f 51/76/75 38/62/8 50/75/76
f 39/63/7 51/76/75 40/64/10
f 40/64/10 51/76/75 52/77/77
f 41/65/12 40/64/10 53/78/78
f 53/78/78 40/64/10 52/77/77
f 42/66/14 41/65/12 54/79/79
f 54/79/79 41/65/12 53/78/78
f 43/67/16 42/66/14 55/80/80
f 55/80/80 42/66/14 54/79/79
s 6
f 43/67/18 55/80/81 44/68/20
f 44/68/20 55/80/81 56/81/82
s 7
f 45/69/23 44/68/24 57/82/83
f 57/82/83 44/68/24 56/81/84
f 46/70/26 45/69/23 58/83/85
f 58/83/85 45/69/23 57/82/83
f 47/71/28 46/70/26 59/84/86
f 59/84/86 46/70/26 58/83/85
f 48/72/30 47/71/28 60/85/87
f 60/85/87 47/71/28 59/84/86
f 37/61/32 48/72/30 49/74/88
f 49/74/88 48/72/30 60/85/87
s 1
f 50/75/73 49/73/74 62/88/89
f 62/88/89 49/73/74 61/86/90
s 2
f 51/76/75 50/75/76 63/89/91
f 63/89/91 50/75/76 62/88/92
f 51/76/75 63/89/91 52/77/77
f 52/77/77 63/89/91 64/90/93
f 53/78/78 52/77/77 65/91/94
f 65/91/94 52/77/77 64/90/93
f 54/79/79 53/78/78 66/92/95
f 66/92/95 53/78/78 65/91/94
f 55/80/80 54/79/79 67/93/96
f 67/93/96 54/79/79 66/92/95
s 6
f 55/80/81 67/93/97 56/81/82
f 56/81/82 67/93/97 68/94/98
s 7
f 57/82/83 56/81/84 69/95/99
f 69/95/99 56/81/84 68/94/100
f 58/83/85 57/82/83 70/96/101
f 70/96/101 57/82/83 69/95/99
f 59/84/86 58/83/85 71/97/102
f 71/97/102 58/83/85 70/96/101
f 60/85/87 59/84/86 72/98/103
f 72/98/103 59/84/86 71/97/102
f 49/74/88 60/85/87 61/87/104
f 61/87/104 60/85/87 72/98/103
s 1
f 61/86/90 73/99/105 62/88/89
f 62/88/89 73/99/105 74/101/106
s 2
f 63/89/91 62/88/92 75/102/107
f 75/102/107 62/88/92 74/101/108
f 64/90/93 63/89/91 76/103/109
f 76/103/109 63/89/91 75/102/107
f 65/91/94 64/90/93 77/104/110
f 77/104/110 64/90/93 76/103/109
f 65/91/94 77/104/110 66/92/95
f 66/92/95 77/104/110 78/105/111
f 67/93/96 66/92/95 79/106/112
f 79/106/112 66/92/95 78/105/111
s 6
f 68/94/98 67/93/97 80/107/113
f 80/107/113 67/93/97 79/106/114
s 7
f 69/95/99 68/94/100 81/108/115
f 81/108/115 68/94/100 80/107/116
f 70/96/101 69/95/99 82/109/117
f 82/109/117 69/95/99 81/108/115
f 71/97/102 70/96/101 83/110/118
f 83/110/118 70/96/101 82/109/117
f 72/98/103 71/97/102 84/111/119
f 84/111/119 71/97/102 83/110/118
f 61/87/104 72/98/103 73/100/120
f 73/100/120 72/98/103 84/111/119
s 1
f 73/99/105 85/112/121 74/101/106
f 74/101/106 85/112/121 86/114/122
s 2
f 75/102/107 74/101/108 87/115/123
f 87/115/123 74/101/108 86/114/124
f 76/103/109 75/102/107 88/116/125
f 88/116/125 75/102/107 87/115/123
f 77/104/110 76/103/109 89/117/126
f 89/117/126 76/103/109 88/116/125
f 77/104/110 89/117/126 78/105/111
f 78/105/111 89/117/126 90/118/127
f 79/106/112 78/105/111 91/119/128
f 91/119/128 78/105/111 90/118/127
s 6
f 80/107/113 79/106/114 92/120/129
f 92/120/129 79/106/114 91/119/130
s 7
f 81/108/115 80/107/116 93/121/131
f 93/121/131 80/107/116 92/120/132
f 82/109/117 81/108/115 94/122/133
f 94/122/133 81/108/115 93/121/131
f 83/110/118 82/109/117 95/123/134
f 95/123/134 82/109/117 94/122/133
f 84/111/119 83/110/118 96/124/135
f 96/124/135 83/110/118 95/123/134
f 73/100/120 84/111/119 85/113/136
f 85/113/136 84/111/119 96/124/135
s 1
f 85/112/121 97/125/137 86/114/122
f 86/114/122 97/125/137 98/127/138
s 2
f 87/115/123 86/114/124 99/128/139
f 99/128/139 86/114/124 98/127/140
f 88/116/125 87/115/123 100/129/141
f 100/129/141 87/115/123 99/128/139
f 89/117/126 88/116/125 101/130/142
f 101/130/142 88/116/125 100/129/141
f 89/117/126 101/130/142 90/118/127
f 90/118/127 101/130/142 102/131/143
f 91/119/128 90/118/127 103/132/144
f 103/132/144 90/118/127 102/131/143
s 6
f 92/120/129 91/119/130 104/133/145
f 104/133/145 91/119/130 103/132/146
s 7
f 93/121/131 92/120/132 105/134/147
f 105/134/147 92/120/132 104/133/148
f 94/122/133 93/121/131 106/135/149
f 106/135/149 93/121/131 105/134/147
f 95/123/134 94/122/133 107/136/150
f 107/136/150 94/122/133 106/135/149
f 96/124/135 95/123/134 108/137/151
f 108/137/151 95/123/134 107/136/150
f 85/113/136 96/124/135 97/126/152
f 97/126/152 96/124/135 108/137/151
s 1
f 97/125/137 2/2/153 98/127/138
f 98/127/138 2/2/153 4/4/154
s 2
f 99/128/139 98/127/140 6/6/155
f 6/6/155 98/127/140 4/4/156
f 100/129/141 99/128/139 8/8/157
f 8/8/157 99/128/139 6/6/155
f 101/130/142 100/129/141 10/10/158
f 10/10/158 100/129/141 8/8/157
f 101/130/142 10/10/158 102/131/143
f 102/131/143 10/10/158 12/12/159
f 103/132/144 102/131/143 14/14/160
f 14/14/160 102/131/143 12/12/159
s 6
f 104/133/145 103/132/146 16/16/161
f 16/16/161 103/132/146 14/14/162
s 7
f 105/134/147 104/133/148 18/18/163
f 18/18/163 104/133/148 16/16/164
f 106/135/149 105/134/147 20/20/165
f 20/20/165 105/134/147 18/18/163
f 107/136/150 106/135/149 22/22/166
f 22/22/166 106/135/149 20/20/165
f 108/137/151 107/136/150 24/24/167
f 24/24/167 107/136/150 22/22/166
f 97/126/152 108/137/151 2/26/168
f 2/26/168 108/137/151 24/24/167
